<?xml version="1.0" standalone="no"?>
<!DOCTYPE svg PUBLIC "-//W3C//DTD SVG 20010904//EN"
 "http://www.w3.org/TR/2001/REC-SVG-20010904/DTD/svg10.dtd">
<svg version="1.0" xmlns="http://www.w3.org/2000/svg"
 width="260.000000pt" height="260.000000pt" viewBox="0 0 260.000000 260.000000"
 preserveAspectRatio="xMidYMid meet">
<metadata>
Created by potrace 1.14, written by Peter Selinger 2001-2017
</metadata>
<g transform="translate(0.000000,260.000000) scale(0.100000,-0.100000)"
fill="#000000" stroke="none">
<path d="M0 1300 l0 -1300 1300 0 1300 0 0 1300 0 1300 -1300 0 -1300 0 0
-1300z m1731 519 c233 -139 464 -274 512 -302 70 -41 87 -55 85 -72 -3 -18
-12 -21 -103 -27 -55 -3 -522 -8 -1037 -11 -959 -5 -986 -4 -964 32 4 6 100
67 214 134 114 68 326 195 472 282 273 163 366 215 386 215 6 0 202 -113 435
-251z m484 -492 c29 -45 -37 -247 -119 -362 -194 -272 -560 -427 -910 -386
-249 28 -447 117 -610 270 -102 97 -166 200 -211 337 -27 84 -32 133 -13 152
9 9 229 12 930 12 l918 0 15 -23z"/>
<path d="M1131 1273 c-614 -3 -712 -5 -708 -17 3 -8 11 -34 17 -58 32 -119
144 -273 263 -362 175 -131 356 -189 587 -190 404 -1 731 216 836 554 25 82
32 78 -133 77 -82 -1 -469 -3 -862 -4z m99 -73 c18 -18 20 -33 20 -144 0 -98
-3 -128 -15 -140 -13 -13 -42 -14 -193 -9 -168 5 -176 4 -154 -12 51 -37 233
-110 325 -130 21 -4 27 -11 27 -31 0 -36 -22 -39 -117 -16 -263 65 -584 321
-571 455 l3 32 275 5 c151 3 299 7 328 8 41 2 56 -2 72 -18z m180 -210 l5
-215 30 3 c47 4 186 77 266 138 90 70 181 160 237 237 43 58 49 62 76 51 25
-10 19 -28 -28 -96 -85 -120 -219 -244 -346 -318 -78 -46 -203 -90 -254 -90
-65 0 -66 5 -66 259 0 243 2 255 50 249 l25 -3 5 -215z"/>
<path d="M668 1143 c-21 -2 -38 -8 -38 -13 0 -15 78 -108 112 -133 32 -23 41
-25 231 -31 l197 -6 0 95 0 95 -232 -2 c-128 -1 -250 -3 -270 -5z"/>
</g>
</svg>
